<svg width="1024" height="753" viewBox="0 0 1024 753" fill="none" xmlns="http://www.w3.org/2000/svg">
<g clip-path="url(#clip0_175_1867)">
<rect width="1024" height="753" fill="#121214"/>
<g opacity="0.2" filter="url(#filter0_f_175_1867)">
<ellipse cx="771.5" cy="56" rx="670.5" ry="350" fill="#B3A659"/>
</g>
<path d="M292.035 292C293.53 292 294.662 292.63 295.431 293.891C296.213 295.138 296.605 296.953 296.605 299.336C296.605 301.719 296.213 303.541 295.431 304.802C294.662 306.063 293.53 306.693 292.035 306.693C290.554 306.693 289.422 306.063 288.639 304.802C287.856 303.541 287.465 301.719 287.465 299.336C287.465 296.967 287.856 295.152 288.639 293.891C289.422 292.63 290.554 292 292.035 292ZM288.953 299.336C288.953 301.026 289.107 302.35 289.415 303.306L294.068 294.099C293.579 293.448 292.901 293.122 292.035 293.122C291.071 293.122 290.316 293.635 289.771 294.66C289.226 295.672 288.953 297.23 288.953 299.336ZM292.035 305.55C293.013 305.55 293.775 305.044 294.32 304.033C294.865 303.008 295.137 301.442 295.137 299.336C295.137 297.549 294.963 296.163 294.613 295.18L289.96 304.469C290.463 305.19 291.154 305.55 292.035 305.55Z" fill="url(#paint0_linear_175_1867)" fill-opacity="0.6"/>
<path d="M293.293 329.135H296.374V330.236H288.387V329.135H291.951V317.455L288.555 319.471L287.968 318.536L292.161 315.959H293.293V329.135Z" fill="url(#paint1_linear_175_1867)" fill-opacity="0.6"/>
<path d="M292.035 339.502C293.53 339.502 294.662 340.133 295.431 341.393C296.213 342.64 296.605 344.455 296.605 346.838C296.605 349.221 296.213 351.043 295.431 352.304C294.662 353.565 293.53 354.195 292.035 354.195C290.554 354.195 289.422 353.565 288.639 352.304C287.856 351.043 287.465 349.221 287.465 346.838C287.465 344.469 287.856 342.654 288.639 341.393C289.422 340.133 290.554 339.502 292.035 339.502ZM288.953 346.838C288.953 348.529 289.107 349.852 289.415 350.808L294.068 341.601C293.579 340.95 292.901 340.624 292.035 340.624C291.071 340.624 290.316 341.137 289.771 342.162C289.226 343.174 288.953 344.732 288.953 346.838ZM292.035 353.052C293.013 353.052 293.775 352.546 294.32 351.535C294.865 350.51 295.137 348.944 295.137 346.838C295.137 345.051 294.963 343.665 294.613 342.682L289.96 351.971C290.463 352.692 291.154 353.052 292.035 353.052Z" fill="url(#paint2_linear_175_1867)" fill-opacity="0.6"/>
<path d="M293.293 376.637H296.374V377.738H288.387V376.637H291.951V364.957L288.555 366.973L287.968 366.038L292.161 363.461H293.293V376.637Z" fill="url(#paint3_linear_175_1867)" fill-opacity="0.6"/>
<path d="M293.293 400.388H296.374V401.489H288.387V400.388H291.951V388.708L288.555 390.724L287.968 389.789L292.161 387.212H293.293V400.388Z" fill="url(#paint4_linear_175_1867)" fill-opacity="0.6"/>
<path d="M292.035 410.755C293.53 410.755 294.662 411.386 295.431 412.646C296.213 413.893 296.605 415.708 296.605 418.091C296.605 420.474 296.213 422.296 295.431 423.557C294.662 424.818 293.53 425.448 292.035 425.448C290.554 425.448 289.422 424.818 288.639 423.557C287.856 422.296 287.465 420.474 287.465 418.091C287.465 415.722 287.856 413.907 288.639 412.646C289.422 411.386 290.554 410.755 292.035 410.755ZM288.953 418.091C288.953 419.782 289.107 421.105 289.415 422.061L294.068 412.854C293.579 412.203 292.901 411.878 292.035 411.878C291.071 411.878 290.316 412.39 289.771 413.415C289.226 414.427 288.953 415.985 288.953 418.091ZM292.035 424.305C293.013 424.305 293.775 423.8 294.32 422.788C294.865 421.763 295.137 420.197 295.137 418.091C295.137 416.304 294.963 414.919 294.613 413.935L289.96 423.225C290.463 423.945 291.154 424.305 292.035 424.305Z" fill="url(#paint5_linear_175_1867)" fill-opacity="0.6"/>
<path d="M293.293 447.89H296.374V448.992H288.387V447.89H291.951V436.21L288.555 438.226L287.968 437.291L292.161 434.714H293.293V447.89Z" fill="url(#paint6_linear_175_1867)" fill-opacity="0.6"/>
<path d="M292.035 458.257C293.53 458.257 294.662 458.888 295.431 460.149C296.213 461.396 296.605 463.211 296.605 465.594C296.605 467.977 296.213 469.798 295.431 471.059C294.662 472.32 293.53 472.95 292.035 472.95C290.554 472.95 289.422 472.32 288.639 471.059C287.856 469.798 287.465 467.977 287.465 465.594C287.465 463.224 287.856 461.409 288.639 460.149C289.422 458.888 290.554 458.257 292.035 458.257ZM288.953 465.594C288.953 467.284 289.107 468.607 289.415 469.563L294.068 460.356C293.579 459.705 292.901 459.38 292.035 459.38C291.071 459.38 290.316 459.892 289.771 460.918C289.226 461.929 288.953 463.488 288.953 465.594ZM292.035 471.807C293.013 471.807 293.775 471.302 294.32 470.29C294.865 469.265 295.137 467.699 295.137 465.594C295.137 463.806 294.963 462.421 294.613 461.437L289.96 470.727C290.463 471.447 291.154 471.807 292.035 471.807Z" fill="url(#paint7_linear_175_1867)" fill-opacity="0.6"/>
<path d="M292.035 482.008C293.53 482.008 294.662 482.639 295.431 483.9C296.213 485.147 296.605 486.962 296.605 489.345C296.605 491.728 296.213 493.549 295.431 494.81C294.662 496.071 293.53 496.701 292.035 496.701C290.554 496.701 289.422 496.071 288.639 494.81C287.856 493.549 287.465 491.728 287.465 489.345C287.465 486.975 287.856 485.16 288.639 483.9C289.422 482.639 290.554 482.008 292.035 482.008ZM288.953 489.345C288.953 491.035 289.107 492.358 289.415 493.314L294.068 484.107C293.579 483.456 292.901 483.131 292.035 483.131C291.071 483.131 290.316 483.643 289.771 484.669C289.226 485.68 288.953 487.239 288.953 489.345ZM292.035 495.558C293.013 495.558 293.775 495.053 294.32 494.041C294.865 493.016 295.137 491.451 295.137 489.345C295.137 487.557 294.963 486.172 294.613 485.188L289.96 494.478C290.463 495.198 291.154 495.558 292.035 495.558Z" fill="url(#paint8_linear_175_1867)" fill-opacity="0.6"/>
<path d="M293.293 519.143H296.374V520.245H288.387V519.143H291.951V507.464L288.555 509.48L287.968 508.544L292.161 505.967H293.293V519.143Z" fill="url(#paint9_linear_175_1867)" fill-opacity="0.6"/>
<path d="M292.035 529.511C293.53 529.511 294.662 530.141 295.431 531.402C296.213 532.649 296.605 534.464 296.605 536.847C296.605 539.23 296.213 541.052 295.431 542.312C294.662 543.573 293.53 544.204 292.035 544.204C290.554 544.204 289.422 543.573 288.639 542.312C287.856 541.052 287.465 539.23 287.465 536.847C287.465 534.478 287.856 532.663 288.639 531.402C289.422 530.141 290.554 529.511 292.035 529.511ZM288.953 536.847C288.953 538.537 289.107 539.86 289.415 540.816L294.068 531.61C293.579 530.958 292.901 530.633 292.035 530.633C291.071 530.633 290.316 531.145 289.771 532.171C289.226 533.182 288.953 534.741 288.953 536.847ZM292.035 543.061C293.013 543.061 293.775 542.555 294.32 541.543C294.865 540.518 295.137 538.953 295.137 536.847C295.137 535.059 294.963 533.674 294.613 532.69L289.96 541.98C290.463 542.7 291.154 543.061 292.035 543.061Z" fill="url(#paint10_linear_175_1867)" fill-opacity="0.6"/>
<path d="M293.293 566.645H296.374V567.747H288.387V566.645H291.951V554.966L288.555 556.982L287.968 556.046L292.161 553.469H293.293V566.645Z" fill="url(#paint11_linear_175_1867)" fill-opacity="0.6"/>
<path d="M293.293 590.396H296.374V591.498H288.387V590.396H291.951V578.717L288.555 580.733L287.968 579.798L292.161 577.221H293.293V590.396Z" fill="url(#paint12_linear_175_1867)" fill-opacity="0.6"/>
<path d="M330.965 339.502C332.46 339.502 333.592 340.133 334.361 341.393C335.144 342.64 335.535 344.455 335.535 346.838C335.535 349.221 335.144 351.043 334.361 352.304C333.592 353.565 332.46 354.195 330.965 354.195C329.484 354.195 328.352 353.565 327.569 352.304C326.787 351.043 326.395 349.221 326.395 346.838C326.395 344.469 326.787 342.654 327.569 341.393C328.352 340.133 329.484 339.502 330.965 339.502ZM327.884 346.838C327.884 348.529 328.037 349.852 328.345 350.808L332.998 341.601C332.509 340.95 331.832 340.624 330.965 340.624C330.001 340.624 329.246 341.137 328.701 342.162C328.156 343.174 327.884 344.732 327.884 346.838ZM330.965 353.052C331.943 353.052 332.705 352.546 333.25 351.535C333.795 350.51 334.068 348.944 334.068 346.838C334.068 345.051 333.893 343.665 333.543 342.682L328.89 351.971C329.393 352.692 330.085 353.052 330.965 353.052Z" fill="url(#paint13_linear_175_1867)" fill-opacity="0.6"/>
<path d="M332.223 376.637H335.304V377.738H327.318V376.637H330.881V364.957L327.485 366.973L326.898 366.038L331.091 363.461H332.223V376.637Z" fill="url(#paint14_linear_175_1867)" fill-opacity="0.6"/>
<path d="M330.965 387.004C332.46 387.004 333.592 387.635 334.361 388.895C335.144 390.142 335.535 391.957 335.535 394.34C335.535 396.723 335.144 398.545 334.361 399.806C333.592 401.067 332.46 401.697 330.965 401.697C329.484 401.697 328.352 401.067 327.569 399.806C326.787 398.545 326.395 396.723 326.395 394.34C326.395 391.971 326.787 390.156 327.569 388.895C328.352 387.635 329.484 387.004 330.965 387.004ZM327.884 394.34C327.884 396.031 328.037 397.354 328.345 398.31L332.998 389.103C332.509 388.452 331.832 388.126 330.965 388.126C330.001 388.126 329.246 388.639 328.701 389.664C328.156 390.676 327.884 392.234 327.884 394.34ZM330.965 400.554C331.943 400.554 332.705 400.049 333.25 399.037C333.795 398.012 334.068 396.446 334.068 394.34C334.068 392.553 333.893 391.168 333.543 390.184L328.89 399.474C329.393 400.194 330.085 400.554 330.965 400.554Z" fill="url(#paint15_linear_175_1867)" fill-opacity="0.6"/>
<path d="M330.965 410.755C332.46 410.755 333.592 411.386 334.361 412.646C335.144 413.893 335.535 415.708 335.535 418.091C335.535 420.474 335.144 422.296 334.361 423.557C333.592 424.818 332.46 425.448 330.965 425.448C329.484 425.448 328.352 424.818 327.569 423.557C326.787 422.296 326.395 420.474 326.395 418.091C326.395 415.722 326.787 413.907 327.569 412.646C328.352 411.386 329.484 410.755 330.965 410.755ZM327.884 418.091C327.884 419.782 328.037 421.105 328.345 422.061L332.998 412.854C332.509 412.203 331.832 411.878 330.965 411.878C330.001 411.878 329.246 412.39 328.701 413.415C328.156 414.427 327.884 415.985 327.884 418.091ZM330.965 424.305C331.943 424.305 332.705 423.8 333.25 422.788C333.795 421.763 334.068 420.197 334.068 418.091C334.068 416.304 333.893 414.919 333.543 413.935L328.89 423.225C329.393 423.945 330.085 424.305 330.965 424.305Z" fill="url(#paint16_linear_175_1867)" fill-opacity="0.6"/>
<path d="M332.223 447.89H335.304V448.992H327.318V447.89H330.881V436.21L327.485 438.226L326.898 437.291L331.091 434.714H332.223V447.89Z" fill="url(#paint17_linear_175_1867)" fill-opacity="0.6"/>
<path d="M330.965 458.257C332.46 458.257 333.592 458.888 334.361 460.149C335.144 461.396 335.535 463.211 335.535 465.594C335.535 467.977 335.144 469.798 334.361 471.059C333.592 472.32 332.46 472.95 330.965 472.95C329.484 472.95 328.352 472.32 327.569 471.059C326.787 469.798 326.395 467.977 326.395 465.594C326.395 463.224 326.787 461.409 327.569 460.149C328.352 458.888 329.484 458.257 330.965 458.257ZM327.884 465.594C327.884 467.284 328.037 468.607 328.345 469.563L332.998 460.356C332.509 459.705 331.832 459.38 330.965 459.38C330.001 459.38 329.246 459.892 328.701 460.918C328.156 461.929 327.884 463.488 327.884 465.594ZM330.965 471.807C331.943 471.807 332.705 471.302 333.25 470.29C333.795 469.265 334.068 467.699 334.068 465.594C334.068 463.806 333.893 462.421 333.543 461.437L328.89 470.727C329.393 471.447 330.085 471.807 330.965 471.807Z" fill="url(#paint18_linear_175_1867)" fill-opacity="0.6"/>
<path d="M332.223 495.392H335.304V496.494H327.318V495.392H330.881V483.713L327.485 485.728L326.898 484.793L331.091 482.216H332.223V495.392Z" fill="url(#paint19_linear_175_1867)" fill-opacity="0.6"/>
<path d="M330.965 505.76C332.46 505.76 333.592 506.39 334.361 507.651C335.144 508.898 335.535 510.713 335.535 513.096C335.535 515.479 335.144 517.301 334.361 518.561C333.592 519.822 332.46 520.453 330.965 520.453C329.484 520.453 328.352 519.822 327.569 518.561C326.787 517.301 326.395 515.479 326.395 513.096C326.395 510.726 326.787 508.911 327.569 507.651C328.352 506.39 329.484 505.76 330.965 505.76ZM327.884 513.096C327.884 514.786 328.037 516.109 328.345 517.065L332.998 507.859C332.509 507.207 331.832 506.882 330.965 506.882C330.001 506.882 329.246 507.394 328.701 508.42C328.156 509.431 327.884 510.99 327.884 513.096ZM330.965 519.31C331.943 519.31 332.705 518.804 333.25 517.792C333.795 516.767 334.068 515.202 334.068 513.096C334.068 511.308 333.893 509.923 333.543 508.939L328.89 518.229C329.393 518.949 330.085 519.31 330.965 519.31Z" fill="url(#paint20_linear_175_1867)" fill-opacity="0.6"/>
<path d="M330.965 529.511C332.46 529.511 333.592 530.141 334.361 531.402C335.144 532.649 335.535 534.464 335.535 536.847C335.535 539.23 335.144 541.052 334.361 542.312C333.592 543.573 332.46 544.204 330.965 544.204C329.484 544.204 328.352 543.573 327.569 542.312C326.787 541.052 326.395 539.23 326.395 536.847C326.395 534.478 326.787 532.663 327.569 531.402C328.352 530.141 329.484 529.511 330.965 529.511ZM327.884 536.847C327.884 538.537 328.037 539.86 328.345 540.816L332.998 531.61C332.509 530.958 331.832 530.633 330.965 530.633C330.001 530.633 329.246 531.145 328.701 532.171C328.156 533.182 327.884 534.741 327.884 536.847ZM330.965 543.061C331.943 543.061 332.705 542.555 333.25 541.543C333.795 540.518 334.068 538.953 334.068 536.847C334.068 535.059 333.893 533.674 333.543 532.69L328.89 541.98C329.393 542.7 330.085 543.061 330.965 543.061Z" fill="url(#paint21_linear_175_1867)" fill-opacity="0.6"/>
<path d="M332.223 566.645H335.304V567.747H327.318V566.645H330.881V554.966L327.485 556.982L326.898 556.046L331.091 553.469H332.223V566.645Z" fill="url(#paint22_linear_175_1867)" fill-opacity="0.6"/>
<path d="M330.965 577.013C332.46 577.013 333.592 577.643 334.361 578.904C335.144 580.151 335.535 581.966 335.535 584.349C335.535 586.732 335.144 588.554 334.361 589.815C333.592 591.075 332.46 591.706 330.965 591.706C329.484 591.706 328.352 591.075 327.569 589.815C326.787 588.554 326.395 586.732 326.395 584.349C326.395 581.98 326.787 580.165 327.569 578.904C328.352 577.643 329.484 577.013 330.965 577.013ZM327.884 584.349C327.884 586.039 328.037 587.362 328.345 588.318L332.998 579.112C332.509 578.461 331.832 578.135 330.965 578.135C330.001 578.135 329.246 578.648 328.701 579.673C328.156 580.684 327.884 582.243 327.884 584.349ZM330.965 590.563C331.943 590.563 332.705 590.057 333.25 589.046C333.795 588.02 334.068 586.455 334.068 584.349C334.068 582.562 333.893 581.176 333.543 580.192L328.89 589.482C329.393 590.202 330.085 590.563 330.965 590.563Z" fill="url(#paint23_linear_175_1867)" fill-opacity="0.6"/>
<path d="M332.223 614.148H335.304V615.249H327.318V614.148H330.881V602.468L327.485 604.484L326.898 603.549L331.091 600.972H332.223V614.148Z" fill="url(#paint24_linear_175_1867)" fill-opacity="0.6"/>
<path d="M332.223 637.899H335.304V639H327.318V637.899H330.881V626.219L327.485 628.235L326.898 627.3L331.091 624.723H332.223V637.899Z" fill="url(#paint25_linear_175_1867)" fill-opacity="0.6"/>
<path d="M272.57 363.253C274.065 363.253 275.197 363.884 275.966 365.144C276.748 366.391 277.14 368.206 277.14 370.589C277.14 372.972 276.748 374.794 275.966 376.055C275.197 377.316 274.065 377.946 272.57 377.946C271.088 377.946 269.956 377.316 269.174 376.055C268.391 374.794 268 372.972 268 370.589C268 368.22 268.391 366.405 269.174 365.144C269.956 363.884 271.088 363.253 272.57 363.253ZM269.488 370.589C269.488 372.28 269.642 373.603 269.95 374.559L274.603 365.352C274.114 364.701 273.436 364.375 272.57 364.375C271.606 364.375 270.851 364.888 270.306 365.913C269.761 366.925 269.488 368.483 269.488 370.589ZM272.57 376.803C273.548 376.803 274.31 376.297 274.855 375.286C275.4 374.261 275.672 372.695 275.672 370.589C275.672 368.802 275.498 367.417 275.148 366.433L270.495 375.722C270.998 376.443 271.689 376.803 272.57 376.803Z" fill="url(#paint26_linear_175_1867)" fill-opacity="0.6"/>
<path d="M272.57 387.004C274.065 387.004 275.197 387.635 275.966 388.895C276.748 390.142 277.14 391.957 277.14 394.34C277.14 396.723 276.748 398.545 275.966 399.806C275.197 401.067 274.065 401.697 272.57 401.697C271.088 401.697 269.956 401.067 269.174 399.806C268.391 398.545 268 396.723 268 394.34C268 391.971 268.391 390.156 269.174 388.895C269.956 387.635 271.088 387.004 272.57 387.004ZM269.488 394.34C269.488 396.031 269.642 397.354 269.95 398.31L274.603 389.103C274.114 388.452 273.436 388.126 272.57 388.126C271.606 388.126 270.851 388.639 270.306 389.664C269.761 390.676 269.488 392.234 269.488 394.34ZM272.57 400.554C273.548 400.554 274.31 400.049 274.855 399.037C275.4 398.012 275.672 396.446 275.672 394.34C275.672 392.553 275.498 391.168 275.148 390.184L270.495 399.474C270.998 400.194 271.689 400.554 272.57 400.554Z" fill="url(#paint27_linear_175_1867)" fill-opacity="0.6"/>
<path d="M273.828 424.139H276.909V425.24H268.922V424.139H272.486V412.459L269.09 414.475L268.503 413.54L272.696 410.963H273.828V424.139Z" fill="url(#paint28_linear_175_1867)" fill-opacity="0.6"/>
<path d="M272.57 434.506C274.065 434.506 275.197 435.137 275.966 436.398C276.748 437.644 277.14 439.459 277.14 441.842C277.14 444.225 276.748 446.047 275.966 447.308C275.197 448.569 274.065 449.199 272.57 449.199C271.088 449.199 269.956 448.569 269.174 447.308C268.391 446.047 268 444.225 268 441.842C268 439.473 268.391 437.658 269.174 436.398C269.956 435.137 271.088 434.506 272.57 434.506ZM269.488 441.842C269.488 443.533 269.642 444.856 269.95 445.812L274.603 436.605C274.114 435.954 273.436 435.629 272.57 435.629C271.606 435.629 270.851 436.141 270.306 437.166C269.761 438.178 269.488 439.737 269.488 441.842ZM272.57 448.056C273.548 448.056 274.31 447.551 274.855 446.539C275.4 445.514 275.672 443.948 275.672 441.842C275.672 440.055 275.498 438.67 275.148 437.686L270.495 446.976C270.998 447.696 271.689 448.056 272.57 448.056Z" fill="url(#paint29_linear_175_1867)" fill-opacity="0.6"/>
<path d="M273.828 471.641H276.909V472.743H268.922V471.641H272.486V459.962L269.09 461.977L268.503 461.042L272.696 458.465H273.828V471.641Z" fill="url(#paint30_linear_175_1867)" fill-opacity="0.6"/>
<path d="M273.828 495.392H276.909V496.494H268.922V495.392H272.486V483.713L269.09 485.728L268.503 484.793L272.696 482.216H273.828V495.392Z" fill="url(#paint31_linear_175_1867)" fill-opacity="0.6"/>
<path d="M312.758 329.135H315.839V330.236H307.853V329.135H311.416V317.455L308.02 319.471L307.433 318.536L311.626 315.959H312.758V329.135Z" fill="url(#paint32_linear_175_1867)" fill-opacity="0.6"/>
<path d="M311.5 339.502C312.995 339.502 314.127 340.133 314.896 341.393C315.679 342.64 316.07 344.455 316.07 346.838C316.07 349.221 315.679 351.043 314.896 352.304C314.127 353.565 312.995 354.195 311.5 354.195C310.019 354.195 308.887 353.565 308.104 352.304C307.321 351.043 306.93 349.221 306.93 346.838C306.93 344.469 307.321 342.654 308.104 341.393C308.887 340.133 310.019 339.502 311.5 339.502ZM308.419 346.838C308.419 348.529 308.572 349.852 308.88 350.808L313.533 341.601C313.044 340.95 312.366 340.624 311.5 340.624C310.536 340.624 309.781 341.137 309.236 342.162C308.691 343.174 308.419 344.732 308.419 346.838ZM311.5 353.052C312.478 353.052 313.24 352.546 313.785 351.535C314.33 350.51 314.602 348.944 314.602 346.838C314.602 345.051 314.428 343.665 314.078 342.682L309.425 351.971C309.928 352.692 310.62 353.052 311.5 353.052Z" fill="url(#paint33_linear_175_1867)" fill-opacity="0.6"/>
<path d="M312.758 376.637H315.839V377.738H307.853V376.637H311.416V364.957L308.02 366.973L307.433 366.038L311.626 363.461H312.758V376.637Z" fill="url(#paint34_linear_175_1867)" fill-opacity="0.6"/>
<path d="M312.758 400.388H315.839V401.489H307.853V400.388H311.416V388.708L308.02 390.724L307.433 389.789L311.626 387.212H312.758V400.388Z" fill="url(#paint35_linear_175_1867)" fill-opacity="0.6"/>
<path d="M311.5 410.755C312.995 410.755 314.127 411.386 314.896 412.646C315.679 413.893 316.07 415.708 316.07 418.091C316.07 420.474 315.679 422.296 314.896 423.557C314.127 424.818 312.995 425.448 311.5 425.448C310.019 425.448 308.887 424.818 308.104 423.557C307.321 422.296 306.93 420.474 306.93 418.091C306.93 415.722 307.321 413.907 308.104 412.646C308.887 411.386 310.019 410.755 311.5 410.755ZM308.419 418.091C308.419 419.782 308.572 421.105 308.88 422.061L313.533 412.854C313.044 412.203 312.366 411.878 311.5 411.878C310.536 411.878 309.781 412.39 309.236 413.415C308.691 414.427 308.419 415.985 308.419 418.091ZM311.5 424.305C312.478 424.305 313.24 423.8 313.785 422.788C314.33 421.763 314.602 420.197 314.602 418.091C314.602 416.304 314.428 414.919 314.078 413.935L309.425 423.225C309.928 423.945 310.62 424.305 311.5 424.305Z" fill="url(#paint36_linear_175_1867)" fill-opacity="0.6"/>
<path d="M312.758 447.89H315.839V448.992H307.853V447.89H311.416V436.21L308.02 438.226L307.433 437.291L311.626 434.714H312.758V447.89Z" fill="url(#paint37_linear_175_1867)" fill-opacity="0.6"/>
<path d="M312.758 471.641H315.839V472.743H307.853V471.641H311.416V459.962L308.02 461.977L307.433 461.042L311.626 458.465H312.758V471.641Z" fill="url(#paint38_linear_175_1867)" fill-opacity="0.6"/>
<path d="M311.5 482.008C312.995 482.008 314.127 482.639 314.896 483.9C315.679 485.147 316.07 486.962 316.07 489.345C316.07 491.728 315.679 493.549 314.896 494.81C314.127 496.071 312.995 496.701 311.5 496.701C310.019 496.701 308.887 496.071 308.104 494.81C307.321 493.549 306.93 491.728 306.93 489.345C306.93 486.975 307.321 485.16 308.104 483.9C308.887 482.639 310.019 482.008 311.5 482.008ZM308.419 489.345C308.419 491.035 308.572 492.358 308.88 493.314L313.533 484.107C313.044 483.456 312.366 483.131 311.5 483.131C310.536 483.131 309.781 483.643 309.236 484.669C308.691 485.68 308.419 487.239 308.419 489.345ZM311.5 495.558C312.478 495.558 313.24 495.053 313.785 494.041C314.33 493.016 314.602 491.451 314.602 489.345C314.602 487.557 314.428 486.172 314.078 485.188L309.425 494.478C309.928 495.198 310.62 495.558 311.5 495.558Z" fill="url(#paint39_linear_175_1867)" fill-opacity="0.6"/>
<path d="M312.758 519.143H315.839V520.245H307.853V519.143H311.416V507.464L308.02 509.48L307.433 508.544L311.626 505.967H312.758V519.143Z" fill="url(#paint40_linear_175_1867)" fill-opacity="0.6"/>
<path d="M311.5 529.511C312.995 529.511 314.127 530.141 314.896 531.402C315.679 532.649 316.07 534.464 316.07 536.847C316.07 539.23 315.679 541.052 314.896 542.312C314.127 543.573 312.995 544.204 311.5 544.204C310.019 544.204 308.887 543.573 308.104 542.312C307.321 541.052 306.93 539.23 306.93 536.847C306.93 534.478 307.321 532.663 308.104 531.402C308.887 530.141 310.019 529.511 311.5 529.511ZM308.419 536.847C308.419 538.537 308.572 539.86 308.88 540.816L313.533 531.61C313.044 530.958 312.366 530.633 311.5 530.633C310.536 530.633 309.781 531.145 309.236 532.171C308.691 533.182 308.419 534.741 308.419 536.847ZM311.5 543.061C312.478 543.061 313.24 542.555 313.785 541.543C314.33 540.518 314.602 538.953 314.602 536.847C314.602 535.059 314.428 533.674 314.078 532.69L309.425 541.98C309.928 542.7 310.62 543.061 311.5 543.061Z" fill="url(#paint41_linear_175_1867)" fill-opacity="0.6"/>
<path d="M350.43 315.751C351.926 315.751 353.057 316.381 353.826 317.642C354.609 318.889 355 320.704 355 323.087C355 325.47 354.609 327.292 353.826 328.553C353.057 329.814 351.926 330.444 350.43 330.444C348.949 330.444 347.817 329.814 347.034 328.553C346.252 327.292 345.86 325.47 345.86 323.087C345.86 320.718 346.252 318.903 347.034 317.642C347.817 316.381 348.949 315.751 350.43 315.751ZM347.349 323.087C347.349 324.777 347.502 326.101 347.81 327.057L352.464 317.85C351.974 317.199 351.297 316.873 350.43 316.873C349.466 316.873 348.711 317.386 348.166 318.411C347.621 319.423 347.349 320.981 347.349 323.087ZM350.43 329.301C351.408 329.301 352.17 328.795 352.715 327.784C353.26 326.759 353.533 325.193 353.533 323.087C353.533 321.3 353.358 319.914 353.009 318.931L348.355 328.22C348.858 328.941 349.55 329.301 350.43 329.301Z" fill="url(#paint42_linear_175_1867)" fill-opacity="0.6"/>
<path d="M351.688 352.886H354.769V353.987H346.783V352.886H350.346V341.206L346.95 343.222L346.363 342.287L350.556 339.71H351.688V352.886Z" fill="url(#paint43_linear_175_1867)" fill-opacity="0.6"/>
<path d="M351.688 376.637H354.769V377.738H346.783V376.637H350.346V364.957L346.95 366.973L346.363 366.038L350.556 363.461H351.688V376.637Z" fill="url(#paint44_linear_175_1867)" fill-opacity="0.6"/>
<path d="M350.43 387.004C351.926 387.004 353.057 387.635 353.826 388.895C354.609 390.142 355 391.957 355 394.34C355 396.723 354.609 398.545 353.826 399.806C353.057 401.067 351.926 401.697 350.43 401.697C348.949 401.697 347.817 401.067 347.034 399.806C346.252 398.545 345.86 396.723 345.86 394.34C345.86 391.971 346.252 390.156 347.034 388.895C347.817 387.635 348.949 387.004 350.43 387.004ZM347.349 394.34C347.349 396.031 347.502 397.354 347.81 398.31L352.464 389.103C351.974 388.452 351.297 388.126 350.43 388.126C349.466 388.126 348.711 388.639 348.166 389.664C347.621 390.676 347.349 392.234 347.349 394.34ZM350.43 400.554C351.408 400.554 352.17 400.049 352.715 399.037C353.26 398.012 353.533 396.446 353.533 394.34C353.533 392.553 353.358 391.168 353.009 390.184L348.355 399.474C348.858 400.194 349.55 400.554 350.43 400.554Z" fill="url(#paint45_linear_175_1867)" fill-opacity="0.6"/>
<path d="M350.43 410.755C351.926 410.755 353.057 411.386 353.826 412.646C354.609 413.893 355 415.708 355 418.091C355 420.474 354.609 422.296 353.826 423.557C353.057 424.818 351.926 425.448 350.43 425.448C348.949 425.448 347.817 424.818 347.034 423.557C346.252 422.296 345.86 420.474 345.86 418.091C345.86 415.722 346.252 413.907 347.034 412.646C347.817 411.386 348.949 410.755 350.43 410.755ZM347.349 418.091C347.349 419.782 347.502 421.105 347.81 422.061L352.464 412.854C351.974 412.203 351.297 411.878 350.43 411.878C349.466 411.878 348.711 412.39 348.166 413.415C347.621 414.427 347.349 415.985 347.349 418.091ZM350.43 424.305C351.408 424.305 352.17 423.8 352.715 422.788C353.26 421.763 353.533 420.197 353.533 418.091C353.533 416.304 353.358 414.919 353.009 413.935L348.355 423.225C348.858 423.945 349.55 424.305 350.43 424.305Z" fill="url(#paint46_linear_175_1867)" fill-opacity="0.6"/>
</g>
<defs>
<filter id="filter0_f_175_1867" x="-299.19" y="-694.19" width="2141.38" height="1500.38" filterUnits="userSpaceOnUse" color-interpolation-filters="sRGB">
<feFlood flood-opacity="0" result="BackgroundImageFix"/>
<feBlend mode="normal" in="SourceGraphic" in2="BackgroundImageFix" result="shape"/>
<feGaussianBlur stdDeviation="200.095" result="effect1_foregroundBlur_175_1867"/>
</filter>
<linearGradient id="paint0_linear_175_1867" x1="311.5" y1="292" x2="311.5" y2="603.381" gradientUnits="userSpaceOnUse">
<stop stop-color="#F7DD43"/>
<stop offset="1" stop-color="#F7DD43" stop-opacity="0"/>
</linearGradient>
<linearGradient id="paint1_linear_175_1867" x1="311.5" y1="292" x2="311.5" y2="603.381" gradientUnits="userSpaceOnUse">
<stop stop-color="#F7DD43"/>
<stop offset="1" stop-color="#F7DD43" stop-opacity="0"/>
</linearGradient>
<linearGradient id="paint2_linear_175_1867" x1="311.5" y1="292" x2="311.5" y2="603.381" gradientUnits="userSpaceOnUse">
<stop stop-color="#F7DD43"/>
<stop offset="1" stop-color="#F7DD43" stop-opacity="0"/>
</linearGradient>
<linearGradient id="paint3_linear_175_1867" x1="311.5" y1="292" x2="311.5" y2="603.381" gradientUnits="userSpaceOnUse">
<stop stop-color="#F7DD43"/>
<stop offset="1" stop-color="#F7DD43" stop-opacity="0"/>
</linearGradient>
<linearGradient id="paint4_linear_175_1867" x1="311.5" y1="292" x2="311.5" y2="603.381" gradientUnits="userSpaceOnUse">
<stop stop-color="#F7DD43"/>
<stop offset="1" stop-color="#F7DD43" stop-opacity="0"/>
</linearGradient>
<linearGradient id="paint5_linear_175_1867" x1="311.5" y1="292" x2="311.5" y2="603.381" gradientUnits="userSpaceOnUse">
<stop stop-color="#F7DD43"/>
<stop offset="1" stop-color="#F7DD43" stop-opacity="0"/>
</linearGradient>
<linearGradient id="paint6_linear_175_1867" x1="311.5" y1="292" x2="311.5" y2="603.381" gradientUnits="userSpaceOnUse">
<stop stop-color="#F7DD43"/>
<stop offset="1" stop-color="#F7DD43" stop-opacity="0"/>
</linearGradient>
<linearGradient id="paint7_linear_175_1867" x1="311.5" y1="292" x2="311.5" y2="603.381" gradientUnits="userSpaceOnUse">
<stop stop-color="#F7DD43"/>
<stop offset="1" stop-color="#F7DD43" stop-opacity="0"/>
</linearGradient>
<linearGradient id="paint8_linear_175_1867" x1="311.5" y1="292" x2="311.5" y2="603.381" gradientUnits="userSpaceOnUse">
<stop stop-color="#F7DD43"/>
<stop offset="1" stop-color="#F7DD43" stop-opacity="0"/>
</linearGradient>
<linearGradient id="paint9_linear_175_1867" x1="311.5" y1="292" x2="311.5" y2="603.381" gradientUnits="userSpaceOnUse">
<stop stop-color="#F7DD43"/>
<stop offset="1" stop-color="#F7DD43" stop-opacity="0"/>
</linearGradient>
<linearGradient id="paint10_linear_175_1867" x1="311.5" y1="292" x2="311.5" y2="603.381" gradientUnits="userSpaceOnUse">
<stop stop-color="#F7DD43"/>
<stop offset="1" stop-color="#F7DD43" stop-opacity="0"/>
</linearGradient>
<linearGradient id="paint11_linear_175_1867" x1="311.5" y1="292" x2="311.5" y2="603.381" gradientUnits="userSpaceOnUse">
<stop stop-color="#F7DD43"/>
<stop offset="1" stop-color="#F7DD43" stop-opacity="0"/>
</linearGradient>
<linearGradient id="paint12_linear_175_1867" x1="311.5" y1="292" x2="311.5" y2="603.381" gradientUnits="userSpaceOnUse">
<stop stop-color="#F7DD43"/>
<stop offset="1" stop-color="#F7DD43" stop-opacity="0"/>
</linearGradient>
<linearGradient id="paint13_linear_175_1867" x1="311.5" y1="292" x2="311.5" y2="603.381" gradientUnits="userSpaceOnUse">
<stop stop-color="#F7DD43"/>
<stop offset="1" stop-color="#F7DD43" stop-opacity="0"/>
</linearGradient>
<linearGradient id="paint14_linear_175_1867" x1="311.5" y1="292" x2="311.5" y2="603.381" gradientUnits="userSpaceOnUse">
<stop stop-color="#F7DD43"/>
<stop offset="1" stop-color="#F7DD43" stop-opacity="0"/>
</linearGradient>
<linearGradient id="paint15_linear_175_1867" x1="311.5" y1="292" x2="311.5" y2="603.381" gradientUnits="userSpaceOnUse">
<stop stop-color="#F7DD43"/>
<stop offset="1" stop-color="#F7DD43" stop-opacity="0"/>
</linearGradient>
<linearGradient id="paint16_linear_175_1867" x1="311.5" y1="292" x2="311.5" y2="603.381" gradientUnits="userSpaceOnUse">
<stop stop-color="#F7DD43"/>
<stop offset="1" stop-color="#F7DD43" stop-opacity="0"/>
</linearGradient>
<linearGradient id="paint17_linear_175_1867" x1="311.5" y1="292" x2="311.5" y2="603.381" gradientUnits="userSpaceOnUse">
<stop stop-color="#F7DD43"/>
<stop offset="1" stop-color="#F7DD43" stop-opacity="0"/>
</linearGradient>
<linearGradient id="paint18_linear_175_1867" x1="311.5" y1="292" x2="311.5" y2="603.381" gradientUnits="userSpaceOnUse">
<stop stop-color="#F7DD43"/>
<stop offset="1" stop-color="#F7DD43" stop-opacity="0"/>
</linearGradient>
<linearGradient id="paint19_linear_175_1867" x1="311.5" y1="292" x2="311.5" y2="603.381" gradientUnits="userSpaceOnUse">
<stop stop-color="#F7DD43"/>
<stop offset="1" stop-color="#F7DD43" stop-opacity="0"/>
</linearGradient>
<linearGradient id="paint20_linear_175_1867" x1="311.5" y1="292" x2="311.5" y2="603.381" gradientUnits="userSpaceOnUse">
<stop stop-color="#F7DD43"/>
<stop offset="1" stop-color="#F7DD43" stop-opacity="0"/>
</linearGradient>
<linearGradient id="paint21_linear_175_1867" x1="311.5" y1="292" x2="311.5" y2="603.381" gradientUnits="userSpaceOnUse">
<stop stop-color="#F7DD43"/>
<stop offset="1" stop-color="#F7DD43" stop-opacity="0"/>
</linearGradient>
<linearGradient id="paint22_linear_175_1867" x1="311.5" y1="292" x2="311.5" y2="603.381" gradientUnits="userSpaceOnUse">
<stop stop-color="#F7DD43"/>
<stop offset="1" stop-color="#F7DD43" stop-opacity="0"/>
</linearGradient>
<linearGradient id="paint23_linear_175_1867" x1="311.5" y1="292" x2="311.5" y2="603.381" gradientUnits="userSpaceOnUse">
<stop stop-color="#F7DD43"/>
<stop offset="1" stop-color="#F7DD43" stop-opacity="0"/>
</linearGradient>
<linearGradient id="paint24_linear_175_1867" x1="311.5" y1="292" x2="311.5" y2="603.381" gradientUnits="userSpaceOnUse">
<stop stop-color="#F7DD43"/>
<stop offset="1" stop-color="#F7DD43" stop-opacity="0"/>
</linearGradient>
<linearGradient id="paint25_linear_175_1867" x1="311.5" y1="292" x2="311.5" y2="603.381" gradientUnits="userSpaceOnUse">
<stop stop-color="#F7DD43"/>
<stop offset="1" stop-color="#F7DD43" stop-opacity="0"/>
</linearGradient>
<linearGradient id="paint26_linear_175_1867" x1="311.5" y1="292" x2="311.5" y2="603.381" gradientUnits="userSpaceOnUse">
<stop stop-color="#F7DD43"/>
<stop offset="1" stop-color="#F7DD43" stop-opacity="0"/>
</linearGradient>
<linearGradient id="paint27_linear_175_1867" x1="311.5" y1="292" x2="311.5" y2="603.381" gradientUnits="userSpaceOnUse">
<stop stop-color="#F7DD43"/>
<stop offset="1" stop-color="#F7DD43" stop-opacity="0"/>
</linearGradient>
<linearGradient id="paint28_linear_175_1867" x1="311.5" y1="292" x2="311.5" y2="603.381" gradientUnits="userSpaceOnUse">
<stop stop-color="#F7DD43"/>
<stop offset="1" stop-color="#F7DD43" stop-opacity="0"/>
</linearGradient>
<linearGradient id="paint29_linear_175_1867" x1="311.5" y1="292" x2="311.5" y2="603.381" gradientUnits="userSpaceOnUse">
<stop stop-color="#F7DD43"/>
<stop offset="1" stop-color="#F7DD43" stop-opacity="0"/>
</linearGradient>
<linearGradient id="paint30_linear_175_1867" x1="311.5" y1="292" x2="311.5" y2="603.381" gradientUnits="userSpaceOnUse">
<stop stop-color="#F7DD43"/>
<stop offset="1" stop-color="#F7DD43" stop-opacity="0"/>
</linearGradient>
<linearGradient id="paint31_linear_175_1867" x1="311.5" y1="292" x2="311.5" y2="603.381" gradientUnits="userSpaceOnUse">
<stop stop-color="#F7DD43"/>
<stop offset="1" stop-color="#F7DD43" stop-opacity="0"/>
</linearGradient>
<linearGradient id="paint32_linear_175_1867" x1="311.5" y1="292" x2="311.5" y2="603.381" gradientUnits="userSpaceOnUse">
<stop stop-color="#F7DD43"/>
<stop offset="1" stop-color="#F7DD43" stop-opacity="0"/>
</linearGradient>
<linearGradient id="paint33_linear_175_1867" x1="311.5" y1="292" x2="311.5" y2="603.381" gradientUnits="userSpaceOnUse">
<stop stop-color="#F7DD43"/>
<stop offset="1" stop-color="#F7DD43" stop-opacity="0"/>
</linearGradient>
<linearGradient id="paint34_linear_175_1867" x1="311.5" y1="292" x2="311.5" y2="603.381" gradientUnits="userSpaceOnUse">
<stop stop-color="#F7DD43"/>
<stop offset="1" stop-color="#F7DD43" stop-opacity="0"/>
</linearGradient>
<linearGradient id="paint35_linear_175_1867" x1="311.5" y1="292" x2="311.5" y2="603.381" gradientUnits="userSpaceOnUse">
<stop stop-color="#F7DD43"/>
<stop offset="1" stop-color="#F7DD43" stop-opacity="0"/>
</linearGradient>
<linearGradient id="paint36_linear_175_1867" x1="311.5" y1="292" x2="311.5" y2="603.381" gradientUnits="userSpaceOnUse">
<stop stop-color="#F7DD43"/>
<stop offset="1" stop-color="#F7DD43" stop-opacity="0"/>
</linearGradient>
<linearGradient id="paint37_linear_175_1867" x1="311.5" y1="292" x2="311.5" y2="603.381" gradientUnits="userSpaceOnUse">
<stop stop-color="#F7DD43"/>
<stop offset="1" stop-color="#F7DD43" stop-opacity="0"/>
</linearGradient>
<linearGradient id="paint38_linear_175_1867" x1="311.5" y1="292" x2="311.5" y2="603.381" gradientUnits="userSpaceOnUse">
<stop stop-color="#F7DD43"/>
<stop offset="1" stop-color="#F7DD43" stop-opacity="0"/>
</linearGradient>
<linearGradient id="paint39_linear_175_1867" x1="311.5" y1="292" x2="311.5" y2="603.381" gradientUnits="userSpaceOnUse">
<stop stop-color="#F7DD43"/>
<stop offset="1" stop-color="#F7DD43" stop-opacity="0"/>
</linearGradient>
<linearGradient id="paint40_linear_175_1867" x1="311.5" y1="292" x2="311.5" y2="603.381" gradientUnits="userSpaceOnUse">
<stop stop-color="#F7DD43"/>
<stop offset="1" stop-color="#F7DD43" stop-opacity="0"/>
</linearGradient>
<linearGradient id="paint41_linear_175_1867" x1="311.5" y1="292" x2="311.5" y2="603.381" gradientUnits="userSpaceOnUse">
<stop stop-color="#F7DD43"/>
<stop offset="1" stop-color="#F7DD43" stop-opacity="0"/>
</linearGradient>
<linearGradient id="paint42_linear_175_1867" x1="311.5" y1="292" x2="311.5" y2="603.381" gradientUnits="userSpaceOnUse">
<stop stop-color="#F7DD43"/>
<stop offset="1" stop-color="#F7DD43" stop-opacity="0"/>
</linearGradient>
<linearGradient id="paint43_linear_175_1867" x1="311.5" y1="292" x2="311.5" y2="603.381" gradientUnits="userSpaceOnUse">
<stop stop-color="#F7DD43"/>
<stop offset="1" stop-color="#F7DD43" stop-opacity="0"/>
</linearGradient>
<linearGradient id="paint44_linear_175_1867" x1="311.5" y1="292" x2="311.5" y2="603.381" gradientUnits="userSpaceOnUse">
<stop stop-color="#F7DD43"/>
<stop offset="1" stop-color="#F7DD43" stop-opacity="0"/>
</linearGradient>
<linearGradient id="paint45_linear_175_1867" x1="311.5" y1="292" x2="311.5" y2="603.381" gradientUnits="userSpaceOnUse">
<stop stop-color="#F7DD43"/>
<stop offset="1" stop-color="#F7DD43" stop-opacity="0"/>
</linearGradient>
<linearGradient id="paint46_linear_175_1867" x1="311.5" y1="292" x2="311.5" y2="603.381" gradientUnits="userSpaceOnUse">
<stop stop-color="#F7DD43"/>
<stop offset="1" stop-color="#F7DD43" stop-opacity="0"/>
</linearGradient>
<clipPath id="clip0_175_1867">
<rect width="1024" height="753" fill="white"/>
</clipPath>
</defs>
</svg>
