<svg width="50" height="50" viewBox="0 0 72 72" fill="none" xmlns="http://www.w3.org/2000/svg">
<g clip-path="url(#clip0_402_462)">
<path d="M51.3165 4.23843C46.6945 2.00354 41.5093 0.75 36.0312 0.75C30.5531 0.75 25.3679 2.00354 20.7459 4.23843L17.6888 35.9062L20.7459 67.5741C25.3679 69.809 30.5531 71.0625 36.0312 71.0625C41.5093 71.0625 46.6945 69.809 51.3165 67.5741L54.3736 35.9062L51.3165 4.23843Z" fill="#D80027"/>
<path d="M36.0309 23.678L39.0659 33.019H48.8887L40.9423 38.7929L43.9774 48.1344L36.0309 42.361L28.0843 48.1344L31.12 38.7929L23.1736 33.019H32.9958L36.0309 23.678Z" fill="#FFDA44"/>
<path d="M20.746 4.23965C8.98648 9.9259 0.875 21.9682 0.875 35.9062C0.875 49.8443 8.98648 61.8866 20.746 67.5728V4.23965Z" fill="#496E2D"/>
<path d="M51.3165 4.23965V67.5728C63.076 61.8866 71.1875 49.8442 71.1875 35.9062C71.1875 21.9683 63.076 9.9259 51.3165 4.23965Z" fill="#FFDA44"/>
</g>
<defs>
<clipPath id="clip0_402_462">
<rect width="70.3125" height="70.3125" fill="white" transform="translate(0.875 0.75)"/>
</clipPath>
</defs>
</svg>
